<svg width="39" height="25" viewBox="0 0 39 25" fill="none" xmlns="http://www.w3.org/2000/svg">
    <path d="M23.5488 20.602H25.7001V22.7533H23.5488V20.602Z" fill="#113A8C"/>
    <path d="M22.4731 19.5227H23.5488V20.5983H22.4731V19.5227Z" fill="#9ABCFF"/>
    <path d="M32.6942 15.7578H33.7699V16.8335H32.6942V15.7578Z" fill="#9ABCFF"/>
    <path d="M35.0866 18.7692H36.1622V19.8448H35.0866V18.7692Z" fill="#9ABCFF"/>
    <path d="M31.2061 18.5903H33.3574V20.7417H31.2061V18.5903Z" fill="#113A8C"/>
    <path d="M28.9271 15.22H31.0785V17.3713H28.9271V15.22Z" fill="#113A8C"/>
    <path d="M25.7001 17.3713H28.9271V20.5983H25.7001V17.3713Z" fill="#3A7CFF"/>
    <path d="M19.3069 2.92931C16.3375 2.92931 13.9261 4.34365 12.7472 6.72491L12.3896 7.44725L11.5959 7.3069C6.24676 6.36101 2.15135 10.7771 2.15135 14.9933C2.15135 19.209 5.56892 22.6266 9.7847 22.6266C10.2272 22.6266 10.8134 22.5004 11.4833 22.2714C12.1391 22.0472 12.8084 21.7481 13.3963 21.4559C14.4724 20.9212 15.456 20.1813 16.4684 19.3503C18.1173 17.997 20.8253 15.8367 22.9793 14.429C23.6151 14.0135 24.2825 13.5579 24.9533 13.0999C25.963 12.4106 26.9807 11.7159 27.9108 11.1442C28.7061 10.6553 29.4981 10.2163 30.2559 9.89751C31.0046 9.58253 31.788 9.35534 32.5502 9.35534C35.1559 9.35534 37.4573 10.6911 38.8338 12.6793C38.8338 12.6793 38.8134 12.675 38.7749 12.6667C37.6385 11.618 36.1197 10.9774 34.4514 10.9774C33.3487 10.9774 32.3114 11.2573 31.4066 11.7498C31.3043 11.7911 31.1987 11.8349 31.0901 11.8805C30.4765 12.1387 29.7898 12.5145 29.0374 12.977C28.1293 13.5351 27.2096 14.164 26.2505 14.8198C25.5751 15.2816 24.8802 15.7568 24.1562 16.2299C22.1095 17.5675 19.4808 19.6611 17.8333 21.0133C16.7928 21.8673 15.6559 22.7355 14.3536 23.3826C13.7153 23.6997 12.9545 24.042 12.1792 24.3071C11.4181 24.5673 10.5722 24.778 9.7847 24.778C4.38076 24.778 0 20.3972 0 14.9933C0 9.79566 4.77373 4.41097 11.1992 5.08C12.8857 2.31151 15.8969 0.777954 19.3069 0.777954C23.2932 0.777954 26.7517 3.28149 28.1772 6.7513L26.3241 7.96693C25.3395 5.04372 22.559 2.92931 19.3069 2.92931Z" fill="url(#paint0_linear_43_415)"/>
    <defs>
        <linearGradient id="paint0_linear_43_415" x1="7.76675" y1="-4.02205" x2="17.6103" y2="33.1422" gradientUnits="userSpaceOnUse">
            <stop offset="0.1" stop-color="#1F6AFF"/>
            <stop offset="1" stop-color="#012263"/>
        </linearGradient>
    </defs>
</svg>
