<svg width="20" height="20" viewBox="0 0 20 20" fill="none" xmlns="http://www.w3.org/2000/svg">
    <path d="M10.8572 12.286C12.1196 12.286 13.143 11.2626 13.143 10.0002C13.143 8.73787 12.1196 7.71452 10.8572 7.71452C9.59488 7.71452 8.57153 8.73787 8.57153 10.0002C8.57153 11.2626 9.59488 12.286 10.8572 12.286Z" fill="white"/>
    <path d="M13.7143 12.8571C13 13.4286 12 13.8571 11 13.8571C8.71429 13.8571 7.14286 12.1429 7.14286 9.85714C7.14286 7.57143 8.71429 6 11 6C12 6 13 6.28571 13.7143 7L14.1429 7.42857L16.4286 5.28571L15.8571 4.85714C14.5714 3.71428 12.8571 3 11 3C7 3 4 6 4 10C4 14 7 17 11 17C12.8571 17 14.5714 16.2857 15.8571 15.1429L16.4286 14.7143L14.1429 12.4286L13.7143 12.8571Z" fill="white"/>
</svg>
