<svg width="20" height="20" viewBox="0 0 20 20" fill="none" xmlns="http://www.w3.org/2000/svg">
    <path d="M5.54098 7.5082H2.2623V18H5.54098V7.5082ZM5.83607 3.90164C5.83779 3.65363 5.79066 3.40771 5.69734 3.17793C5.60403 2.94814 5.46637 2.73898 5.29222 2.5624C5.11807 2.38581 4.91084 2.24526 4.68237 2.14876C4.4539 2.05227 4.20866 2.00172 3.96066 2H3.90164C3.39729 2 2.9136 2.20035 2.55698 2.55698C2.20035 2.9136 2 3.39729 2 3.90164C2 4.40599 2.20035 4.88967 2.55698 5.2463C2.9136 5.60293 3.39729 5.80328 3.90164 5.80328C4.14966 5.80938 4.39646 5.76655 4.62792 5.67724C4.85939 5.58793 5.07099 5.45388 5.25063 5.28277C5.43027 5.11165 5.57444 4.90681 5.67489 4.67996C5.77534 4.45311 5.83011 4.20868 5.83607 3.96066V3.90164ZM18 11.6262C18 8.47213 15.9934 7.2459 14 7.2459C13.3473 7.21322 12.6974 7.35224 12.1153 7.64909C11.5331 7.94594 11.0389 8.39025 10.682 8.93771H10.5902V7.5082H7.5082V18H10.7869V12.4197C10.7395 11.8482 10.9195 11.281 11.2879 10.8415C11.6562 10.4019 12.1831 10.1254 12.7541 10.0721H12.8787C13.9213 10.0721 14.6951 10.7279 14.6951 12.3803V18H17.9738L18 11.6262Z" fill="white"/>
</svg>
