<svg width="20" height="20" viewBox="0 0 20 20" fill="none" xmlns="http://www.w3.org/2000/svg">
    <path d="M15.4647 5.1867C13.3214 5.19686 11.6915 6.58787 11.0817 8.80423C10.0585 7.25923 9.26015 5.49214 8.80217 4L6.54593 4.01016L6.57391 9.87657C6.57639 10.4343 6.353 10.9702 5.95285 11.3665C5.55269 11.7628 5.00852 11.9869 4.43994 11.9898C3.87136 11.9922 3.32506 11.7731 2.92111 11.3805C2.51717 10.988 2.28865 10.4542 2.28577 9.8964L2.25727 4.02999L0 4.04015L0.0279765 9.90656C0.0398923 12.3409 2.02258 14.2702 4.44927 14.2585C6.87595 14.2468 8.84154 12.3008 8.83015 9.8659L8.82496 8.86979C9.27984 9.75257 9.84869 10.6907 10.474 11.5186L9.09437 18L11.4071 17.9898L12.4018 13.2806C13.3069 13.8305 14.3187 14.1573 15.5082 14.1517C17.9908 14.1401 20.0129 12.1392 19.9999 9.59299C19.9905 8.41987 19.5084 7.29806 18.6588 6.47243C17.8092 5.6468 16.6611 5.18441 15.4652 5.18619L15.4647 5.1867ZM15.4968 11.8835C14.5943 11.8876 13.6902 11.5044 12.9541 10.8986L13.1753 10.0128V9.96196C13.3411 9.01971 13.8395 7.41271 15.5325 7.4056C16.1295 7.40463 16.7027 7.63499 17.1274 8.04655C17.5521 8.45812 17.7939 9.01757 17.8002 9.60315C17.7494 10.8762 16.6827 11.8774 15.4973 11.883L15.4968 11.8835Z" fill="white"/>
</svg>
