<svg width="125" height="124" viewBox="0 0 125 124" fill="none" xmlns="http://www.w3.org/2000/svg">
    <path d="M18.6179 107.789H6.46974C5.30292 107.789 4.34879 108.735 4.51994 109.885C5.2613 114.867 8.7183 122 18.6179 122H97.8447M18.6179 107.789H83.5838M18.6179 107.789V73.5789M97.8447 122C93.0911 121.912 83.5838 118.947 83.5838 107.789M97.8447 122C100.224 122 102.232 121.588 103.919 120.892M83.5838 107.789H102.598M28.8279 12.0657C28.3796 12.5336 28.1759 13.1734 28.1251 13.5789V46.7368C28.1251 47.158 28.2773 47.832 28.7644 48.3036M28.8279 12.0657C29.1554 11.7238 29.6135 11.4737 30.2378 11.4737H70.3794C71.0551 11.4737 71.5282 11.698 71.8527 12.0122M28.8279 12.0657L50.3086 30.1579M71.8527 12.0122C72.3399 12.4838 72.4921 13.1578 72.4921 13.5789V46.7368C72.4921 47.4805 72.2175 47.9779 71.8502 48.3015M71.8527 12.0122L50.3086 30.1579M50.3086 30.1579L28.7644 48.3036M50.3086 30.1579L71.8502 48.3015M28.7644 48.3036C29.0889 48.6178 29.562 48.8421 30.2378 48.8421H40.8015M71.8502 48.3015C71.3856 48.7108 70.7727 48.8421 70.3794 48.8421H47.1396M81.9993 22.7895V13.5789C81.9993 12.4162 82.9452 11.4737 84.112 11.4737H93.0911C94.2579 11.4737 95.2038 12.4162 95.2038 13.5789V96.2105C95.2038 97.3732 94.2579 98.3158 93.0911 98.3158H84.112C82.9452 98.3158 81.9993 97.3732 81.9993 96.2105V85.9474M81.9993 22.7895H88.6015M81.9993 22.7895V33.3158M81.9993 33.3158H88.6015M81.9993 33.3158V43.8421M81.9993 43.8421H88.6015M81.9993 43.8421V54.3684M81.9993 54.3684H88.6015M81.9993 54.3684V64.8947M81.9993 64.8947H88.6015M81.9993 64.8947V75.4211M81.9993 75.4211H88.6015M81.9993 75.4211V85.9474M81.9993 85.9474H88.6015M119.5 98.3158L112.589 114.056C112.405 114.476 111.806 114.476 111.622 114.056L104.711 98.3158M119.5 98.3158H104.711M119.5 98.3158V33.3158M104.711 98.3158V33.3158M28.9117 58.7264C28.3074 59.1962 28.1251 59.9601 28.1251 60.4211V79.3684C28.1251 80.2144 28.4804 80.7417 28.9234 81.057M28.9117 58.7264C29.2273 58.481 29.6579 58.3158 30.2378 58.3158H70.3794C70.7299 58.3158 71.2548 58.4201 71.6937 58.7325M28.9117 58.7264L50.3086 69.8947M50.3086 69.8947L71.7055 81.0631M50.3086 69.8947L71.6937 58.7325M50.3086 69.8947L28.9234 81.057M28.9234 81.057C29.3623 81.3694 29.8873 81.4737 30.2378 81.4737H70.3794C70.9592 81.4737 71.3899 81.3085 71.7055 81.0631M71.7055 81.0631C72.3097 80.5933 72.4921 79.8294 72.4921 79.3684V60.4211C72.4921 59.5751 72.1367 59.0478 71.6937 58.7325M112.105 5.15789V4.10526C112.105 2.94256 111.16 2 109.993 2H20.7306C19.5637 2 18.6179 2.94256 18.6179 4.10526V67.2632M104.711 27.5263V18.8421C104.711 14.7726 108.022 11.4737 112.105 11.4737C116.189 11.4737 119.5 14.7726 119.5 18.8421V27.5263M104.711 27.5263H119.5M104.711 27.5263V33.3158M119.5 27.5263V33.3158M104.711 33.3158H119.5M28.1252 90.9474H51.8932M61.4004 90.9474H72.4922M28.1252 98.3158H72.4922" stroke="#1F6AFF" stroke-width="2" stroke-linecap="round"/>
</svg>
