<svg width="125" height="124" viewBox="0 0 125 124" fill="none" xmlns="http://www.w3.org/2000/svg">
    <path d="M46.9525 42.2671L37.5546 51.4305C37.3514 51.6286 37.2368 51.9004 37.2368 52.1841V63.8899C37.2368 64.629 37.9786 65.1379 38.6682 64.872L47.4747 61.4767M46.9525 42.2671C46.6998 49.0777 46.9663 55.7589 47.4747 61.4767M46.9525 42.2671C47.0467 39.727 47.2132 37.1688 47.4662 34.6359M47.4747 61.4767C47.673 63.707 47.9081 65.7907 48.1636 67.6783C48.2338 68.1971 48.6782 68.5816 49.2018 68.5816H55.3947M47.4747 61.4767H77.5253M55.3947 68.5816L49.6053 75.9497M55.3947 68.5816H69.6053M49.6053 75.9497H56.0526M49.6053 75.9497V82.3309C49.6053 82.9122 49.1328 83.3772 48.5538 83.4304C44.2759 83.8235 42.5797 86.608 42.1135 88.6362C41.9871 89.186 41.5286 89.6332 40.9644 89.6332H35.1316C30.075 89.6332 28.1425 92.6991 27.6398 94.8859C27.5135 95.4357 27.0529 95.8766 26.491 95.9259C21.4143 96.372 19.9509 100.173 19.8684 102.133V110.422M56.0526 75.9497L61.5343 88.5903C61.9007 89.4354 63.0993 89.4354 63.4657 88.5903L68.9474 75.9497M56.0526 75.9497H68.9474M78.0475 42.2671L87.4454 51.4305C87.6486 51.6286 87.7632 51.9004 87.7632 52.1841V63.8899C87.7632 64.629 87.0214 65.1379 86.3318 64.872L77.5253 61.4767M78.0475 42.2671C78.3002 49.0777 78.0337 55.7589 77.5253 61.4767M78.0475 42.2671C77.9533 39.727 77.7868 37.1688 77.5338 34.6359M77.5253 61.4767C77.327 63.707 77.0919 65.7907 76.8365 67.6783C76.7662 68.1971 76.3218 68.5816 75.7982 68.5816H69.6053M69.6053 68.5816L75.3947 75.9497M75.3947 75.9497H68.9474M75.3947 75.9497V82.3309C75.3947 82.9122 75.8672 83.3772 76.4461 83.4304C80.7241 83.8235 82.4203 86.608 82.8865 88.6362C83.0129 89.186 83.4714 89.6332 84.0356 89.6332H89.8684C94.925 89.6332 96.8575 92.6991 97.3602 94.8859C97.4865 95.4357 97.9471 95.8766 98.509 95.9259C103.586 96.372 105.049 100.173 105.132 102.133V110.422M42.7632 110.422L46.9737 114.632H77.3684L81.5789 110.422M42.7632 110.422H81.5789M42.7632 110.422H14.0789M81.5789 110.422H110.921M110.921 110.422H115.132M110.921 110.422V71.4762M115.132 110.422H120.395C121.557 110.422 122.5 111.364 122.5 112.527V115.685C122.5 119.172 119.672 122 116.184 122H8.81579C5.32767 122 2.5 119.172 2.5 115.685V112.527C2.5 111.364 3.44256 110.422 4.60526 110.422H9.86842M115.132 110.422V71.4762M14.0789 110.422V35.6885C14.0789 35.1072 14.5502 34.6359 15.1316 34.6359H28.8158M14.0789 110.422H9.86842M9.86842 110.422V34.6359C9.86842 32.3106 11.7535 30.4256 14.0789 30.4256H28.8158M47.9734 30.4256C49.7326 18.0531 53.8259 6.75802 62.0153 2.12748C62.3159 1.95751 62.6841 1.95751 62.9847 2.12748C71.1741 6.75802 75.2674 18.0531 77.0266 30.4256M47.9734 30.4256C47.7757 31.8162 47.6074 33.2221 47.4662 34.6359M47.9734 30.4256H35.1316M47.4662 34.6359H35.1316M77.0266 30.4256H110.921C113.246 30.4256 115.132 32.3106 115.132 34.6359V65.1607M77.0266 30.4256C77.2243 31.8162 77.3925 33.2221 77.5338 34.6359M77.5338 34.6359H109.868C110.45 34.6359 110.921 35.1072 110.921 35.6885V65.1607M62.5 39.6357C58.4305 39.6357 55.1316 36.3369 55.1316 32.2676C55.1316 28.1983 58.4305 24.8996 62.5 24.8996C66.5695 24.8996 69.8684 28.1983 69.8684 32.2676C69.8684 36.3369 66.5695 39.6357 62.5 39.6357Z" stroke="#1F6AFF" stroke-width="2" stroke-linecap="round"/>
</svg>
