<svg width="125" height="124" viewBox="0 0 125 124" fill="none" xmlns="http://www.w3.org/2000/svg">
    <path d="M59.3421 27.2632H86.4098M97.2368 27.2632H109.868M59.3421 34.6316H104.868M59.3421 42H104.868M59.3421 49.3684H109.868M15.1316 56.7368H100.493M15.1316 64.1053H36.1842M45.1316 64.1053H52.5M59.3421 64.1053H87.7632M95.6579 64.1053H103.026M15.1316 71.4737H72.7632M15.1316 78.8421H87.2368M79.079 71.4737H100.132M93.8158 78.8421H109.868M2.5 14.6316V6.21053C2.5 3.88512 4.38512 2 6.71053 2H106.184M2.5 14.6316V89.3684M2.5 14.6316H106.184M122.5 14.6316V6.21053C122.5 3.88512 120.615 2 118.289 2H112.5M122.5 14.6316V89.3684M122.5 14.6316H112.5M2.5 89.3684V97.7895C2.5 100.115 4.38512 102 6.71052 102H11.4474M2.5 89.3684H122.5M122.5 89.3684V97.7895C122.5 100.115 120.615 102 118.289 102H17.7632M38.6745 32.5173L41.2866 35.1057C41.9298 35.7432 41.9298 36.7767 41.2866 37.4142L38.6745 40.0027C38.0312 40.6401 38.0312 41.6736 38.6745 42.3111L38.8158 42.4511C39.4591 43.0886 40.502 43.0886 41.1452 42.4511L46.2281 37.4142C46.8713 36.7767 46.8713 35.7432 46.2281 35.1057L41.1452 30.0688C40.502 29.4313 39.4591 29.4314 38.8158 30.0688L38.6745 30.2088C38.0312 30.8463 38.0312 31.8798 38.6745 32.5173ZM23.1676 32.5173L20.5556 35.1057C19.9123 35.7432 19.9123 36.7767 20.5556 37.4142L23.1676 40.0027C23.8109 40.6401 23.8109 41.6736 23.1676 42.3111L23.0263 42.4511C22.3831 43.0886 21.3401 43.0886 20.6969 42.4511L15.614 37.4142C14.9708 36.7767 14.9708 35.7432 15.614 35.1057L20.6969 30.0688C21.3401 29.4313 22.3831 29.4314 23.0263 30.0688L23.1676 30.2088C23.8109 30.8463 23.8109 31.8798 23.1676 32.5173ZM27.6867 41.9254L31.3041 28.5468C31.5538 27.6232 32.5118 27.0751 33.4439 27.3226C34.3759 27.5701 34.929 28.5194 34.6792 29.443L31.0618 42.8216C30.8121 43.7452 29.8541 44.2933 28.922 44.0458C27.99 43.7984 27.4369 42.849 27.6867 41.9254ZM30.9211 102H94.079V117.789C94.079 120.115 92.1938 122 89.8684 122H35.1316C32.8062 122 30.9211 120.115 30.9211 117.789V102Z" stroke="#1F6AFF" stroke-width="2" stroke-linecap="round"/>
</svg>
