<svg width="125" height="124" viewBox="0 0 125 124" fill="none" xmlns="http://www.w3.org/2000/svg">
    <path d="M122.5 27.6037V23.4025C122.5 18.7619 118.73 15 114.079 15H10.9211C6.27023 15 2.5 18.7619 2.5 23.4025V57.0123M122.5 33.9055V40.2074M122.5 46.5092V80.119C122.5 84.7596 118.73 88.5215 114.079 88.5215H49.6878C49.1295 88.5215 48.594 88.7428 48.1992 89.1368L29.2518 108.381C27.9256 109.704 25.6579 108.767 25.6579 106.895V90.6221C25.6579 89.462 24.7153 88.5215 23.5526 88.5215H10.921C6.27023 88.5215 2.5 84.7596 2.5 80.119V75.9178M2.5 69.616V63.3141M62.5 39.1571C69.4762 39.1571 75.1316 44.7999 75.1316 51.7608C75.1316 58.7216 69.4762 64.3644 62.5 64.3644C55.5238 64.3644 49.8684 58.7216 49.8684 51.7608C49.8684 44.7999 55.5238 39.1571 62.5 39.1571ZM62.5 24.4528C64.0452 24.4528 65.5606 24.5805 67.036 24.8261C67.4734 24.8989 67.8085 25.2486 67.8766 25.6859L68.7153 31.0711C68.7768 31.4662 69.0586 31.79 69.4369 31.9216C70.0938 32.1503 70.7358 32.4105 71.3612 32.7005C71.7369 32.8746 72.1807 32.8293 72.5027 32.5693L76.6466 29.2224C76.999 28.9377 77.4957 28.9086 77.8707 29.163C79.3006 30.1333 80.6337 31.2351 81.8524 32.4511C82.9203 33.5166 83.9004 34.6698 84.7808 35.8989C85.0478 36.2717 85.0261 36.775 84.7401 37.1334L81.464 41.2397C81.2012 41.5691 81.1631 42.0221 81.3514 42.3988C81.5892 42.8748 81.8095 43.361 82.0114 43.8566C82.1558 44.2111 82.4724 44.4695 82.8516 44.5258L88.4305 45.3542C88.8566 45.4174 89.2029 45.7329 89.2909 46.1536C89.6695 47.9634 89.8684 49.8389 89.8684 51.7608C89.8684 53.6826 89.6695 55.5581 89.2909 57.3679C89.2029 57.7886 88.8566 58.1041 88.4305 58.1673L82.8516 58.9957C82.4724 59.052 82.1558 59.3104 82.0114 59.6649C81.8095 60.1605 81.5892 60.6467 81.3514 61.1227C81.1631 61.4994 81.2012 61.9524 81.464 62.2818L84.7401 66.3881C85.0261 66.7465 85.0478 67.2498 84.7808 67.6226C83.9004 68.8517 82.9203 70.0049 81.8524 71.0704C80.6337 72.2864 79.3006 73.3882 77.8707 74.3585C77.4957 74.6129 76.999 74.5838 76.6466 74.2991L72.5027 70.9522C72.1807 70.6922 71.7369 70.6469 71.3612 70.821C70.7358 71.111 70.0938 71.3712 69.4369 71.5999C69.0586 71.7316 68.7768 72.0553 68.7153 72.4504L67.8766 77.8356C67.8085 78.2729 67.4734 78.6226 67.036 78.6954C65.5606 78.941 64.0452 79.0687 62.5 79.0687C60.9548 79.0687 59.4394 78.941 57.9641 78.6954C57.5266 78.6226 57.1915 78.2729 57.1234 77.8356L56.2847 72.4504C56.2232 72.0553 55.9414 71.7316 55.5631 71.5999C54.9062 71.3712 54.2642 71.111 53.6388 70.821C53.2631 70.6469 52.8193 70.6922 52.4973 70.9522L48.3534 74.2991C48.001 74.5838 47.5043 74.6129 47.1293 74.3585C45.6994 73.3882 44.3663 72.2864 43.1476 71.0704C42.0797 70.0049 41.0996 68.8517 40.2192 67.6226C39.9522 67.2498 39.9739 66.7465 40.2599 66.3881L43.536 62.2818C43.7988 61.9524 43.8369 61.4994 43.6486 61.1227C43.4108 60.6467 43.1905 60.1605 42.9886 59.6649C42.8442 59.3104 42.5276 59.052 42.1484 58.9957L36.5695 58.1673C36.1434 58.1041 35.7971 57.7886 35.7091 57.3679C35.3306 55.5581 35.1316 53.6826 35.1316 51.7608C35.1316 49.8389 35.3306 47.9634 35.7091 46.1536C35.7971 45.7329 36.1434 45.4174 36.5695 45.3542L42.1484 44.5258C42.5276 44.4695 42.8442 44.2111 42.9886 43.8566C43.1905 43.361 43.4108 42.8748 43.6486 42.3988C43.8369 42.0221 43.7988 41.5691 43.536 41.2397L40.2599 37.1334C39.9739 36.775 39.9522 36.2717 40.2192 35.8989C41.0996 34.6698 42.0797 33.5166 43.1476 32.4511C44.3663 31.2351 45.6994 30.1333 47.1293 29.163C47.5043 28.9086 48.001 28.9377 48.3534 29.2224L52.4973 32.5693C52.8193 32.8293 53.2631 32.8746 53.6388 32.7005C54.2642 32.4105 54.9062 32.1503 55.5631 31.9216C55.9414 31.79 56.2232 31.4662 56.2847 31.0711L57.1234 25.6859C57.1915 25.2486 57.5266 24.8989 57.9641 24.8261C59.4394 24.5805 60.9548 24.4528 62.5 24.4528Z" stroke="#1F6AFF" stroke-width="2" stroke-linecap="round"/>
</svg>
