<svg width="125" height="124" viewBox="0 0 125 124" fill="none" xmlns="http://www.w3.org/2000/svg">
    <path d="M120.31 45.8806C113.268 20.5721 90.0529 2 62.5 2C29.3629 2 2.5 28.8629 2.5 62C2.5 95.1371 29.3629 122 62.5 122C90.0529 122 113.268 103.428 120.31 78.1194M122.459 59.7612C122.486 60.5041 122.5 61.2504 122.5 62C122.5 62.9003 122.48 63.796 122.441 64.6866M39.3017 85.1983L36.5179 87.9821M25.7558 62H29.6927M36.5179 36.0179L39.3017 38.8017M62.5 29.1927V25.2558M85.6983 38.8017L88.4821 36.0179M99.2442 62H95.3073M85.6983 85.1983L88.4821 87.9821M62.5 94.8073V98.7442M73.5426 48.1196L55.0994 52.937C54.2854 53.1497 53.6497 53.7854 53.437 54.5994L48.6196 73.0426C48.1705 74.7621 49.7379 76.3296 51.4574 75.8804L69.9006 71.063C70.7146 70.8503 71.3503 70.2146 71.563 69.4006L76.3804 50.9574C76.8296 49.2379 75.2621 47.6705 73.5426 48.1196ZM109.012 62C109.012 87.6877 88.1877 108.512 62.5 108.512C36.8123 108.512 15.9884 87.6877 15.9884 62C15.9884 36.3123 36.8123 15.4884 62.5 15.4884C88.1877 15.4884 109.012 36.3123 109.012 62Z" stroke="#1F6AFF" stroke-width="2" stroke-linecap="round"/>
</svg>
