<svg width="80" height="80" viewBox="0 0 80 80" fill="none" xmlns="http://www.w3.org/2000/svg">
    <path fill-rule="evenodd" clip-rule="evenodd" d="M26.0514 34.7893C26.0514 35.5836 26.1154 36.2191 26.2754 36.7592C26.4355 37.1405 26.6595 37.6488 26.9475 38.2207C27.0756 38.3478 27.1076 38.5385 27.1076 38.6973C27.1076 38.9197 26.9795 39.1104 26.6915 39.3328L25.3473 40.2224C25.1553 40.3495 24.9632 40.413 24.8032 40.413C24.5792 40.413 24.3871 40.286 24.1631 40.0953C23.8751 39.7776 23.619 39.4599 23.395 39.1104C23.2029 38.7609 22.9789 38.3478 22.7549 37.8712C21.0906 39.8094 19.0103 40.7943 16.4819 40.7943C14.6896 40.7943 13.2814 40.286 12.2252 39.2692C11.2011 38.2525 10.657 36.8863 10.657 35.1706C10.657 33.4231 11.2971 31.9933 12.5773 30.8495C13.8895 29.7692 15.6178 29.1973 17.7941 29.1973C18.5302 29.1973 19.2023 29.2609 20.0665 29.388C20.8026 29.4833 21.6667 29.6421 22.4988 29.8328V28.3077C22.4988 26.6873 22.1788 25.6388 21.5067 24.908C20.8026 24.2408 19.6824 23.9548 18.0501 23.9548C17.282 23.9548 16.5139 24.0502 15.7458 24.209C14.9457 24.3997 14.1775 24.6221 13.4414 24.9398C13.0894 25.0669 12.8013 25.1622 12.7053 25.194C12.5453 25.2575 12.4493 25.2575 12.3533 25.2575C12.0652 25.2575 11.9052 25.0669 11.9052 24.6221V23.5736C11.9052 23.2559 11.9372 23.0017 12.0652 22.8428C12.1612 22.6839 12.3533 22.5569 12.6413 22.4615C13.4094 22.0167 14.2736 21.699 15.3297 21.4448C16.4155 21.1591 17.5351 21.0202 18.6582 21.0318C21.1866 21.0318 23.0429 21.6037 24.2271 22.7475C25.4113 23.8913 25.9874 25.6388 25.9874 27.9582V34.7893H26.0514ZM17.41 38.0301C18.1142 38.0301 18.8183 37.903 19.5864 37.6488C20.3545 37.3946 21.0266 36.9181 21.6027 36.2826C21.9548 35.8696 22.2108 35.4247 22.4028 34.9164C22.4028 34.6852 22.4359 34.4343 22.472 34.1607C22.5153 33.8327 22.5628 33.472 22.5628 33.0736V32.2157C22.1805 32.0829 21.7981 32.0294 21.4021 31.974C21.1352 31.9366 20.862 31.8984 20.5785 31.8344C19.9194 31.7625 19.2573 31.7201 18.5942 31.7074C17.154 31.7074 16.1298 31.9933 15.4257 32.5652C14.7216 33.1371 14.4016 33.9314 14.4016 34.9799C14.4016 35.9967 14.6256 36.7592 15.1697 37.2358C15.6818 37.7759 16.4179 38.0301 17.41 38.0301ZM34.5007 40.286C34.1906 40.2978 33.8825 40.2322 33.6046 40.0953C33.5086 39.9365 33.3485 39.6505 33.2205 39.2692L28.2277 22.9381L28.1957 22.8192C28.089 22.4233 28.0357 22.2253 28.0357 22.0803C28.0357 21.7308 28.1957 21.5401 28.5478 21.5401H30.6281C31.0442 21.5401 31.3322 21.6037 31.4602 21.7625C31.6523 21.8896 31.7803 22.1756 31.9083 22.5886L35.4609 36.5686L38.7894 22.5886C38.8854 22.1756 39.0134 21.8896 39.2054 21.7625C39.3655 21.6355 39.6535 21.5401 40.0056 21.5401H41.7658C42.1499 21.5401 42.4379 21.6037 42.598 21.7625C42.758 21.8896 42.918 22.1756 43.014 22.5886L46.4066 36.7592L50.0551 22.5886C50.1831 22.1756 50.3432 21.8896 50.4712 21.7625C50.6632 21.6355 50.9193 21.5401 51.3033 21.5401H53.2876C53.6397 21.5401 53.8317 21.7308 53.8317 22.0803C53.8317 22.1557 53.8117 22.251 53.7875 22.3662C53.7811 22.3966 53.7744 22.4284 53.7677 22.4615C53.7677 22.4615 53.7037 22.7157 53.6397 22.9381L48.4869 39.2692C48.3589 39.714 48.2308 39.9365 48.0068 40.0953C47.8788 40.2224 47.5907 40.3177 47.2387 40.3177H45.4144C44.9983 40.3177 44.8063 40.2542 44.5503 40.0953C44.3351 39.8688 44.2002 39.5788 44.1662 39.2692L40.8697 25.6388L37.5732 39.2375C37.4772 39.6505 37.3491 39.9365 37.1891 40.0953C36.9255 40.2399 36.6255 40.3061 36.325 40.286H34.5007ZM61.865 40.8579C60.8088 40.8579 59.6246 40.7308 58.5685 40.4766C57.5123 40.2224 56.6802 39.9365 56.1361 39.6505C55.8577 39.5184 55.6241 39.3086 55.464 39.0468C55.3761 38.869 55.3322 38.6729 55.336 38.4749V37.3946C55.336 36.9498 55.496 36.7592 55.816 36.7592H56.2001C56.2768 36.7592 56.3764 36.8162 56.4921 36.8824C56.5696 36.9267 56.6543 36.9752 56.7442 37.0134C57.4483 37.3311 58.2484 37.5853 59.0805 37.7441C59.9447 37.903 60.8088 37.9983 61.6089 37.9983C62.9531 37.9983 64.0093 37.7759 64.7134 37.2993C65.4495 36.7592 65.8336 36.1555 65.8336 35.2977C65.8336 34.694 65.6096 34.2174 65.2575 33.8043C64.8734 33.4231 64.1373 33.0418 63.1132 32.7241L60.0087 31.7709C58.4724 31.2625 57.3203 30.5635 56.6162 29.6104C55.929 28.728 55.5574 27.6437 55.56 26.5284C55.56 25.6388 55.752 24.8763 56.1361 24.209C56.5201 23.51 57.0322 22.9381 57.6083 22.4615C58.3124 21.9849 59.0165 21.6355 59.8807 21.3813C60.7128 21.1271 61.6089 21 62.5691 21C63.0171 21 63.4972 21.0318 64.0093 21.0953C64.2333 21.1271 64.4574 21.1668 64.6814 21.2065C64.9054 21.2462 65.1295 21.286 65.3535 21.3177C65.4922 21.3571 65.6248 21.3934 65.7531 21.4285C66.0394 21.5069 66.3045 21.5795 66.5697 21.6672C66.9538 21.7943 67.2098 21.9214 67.4658 22.0485C67.7539 22.2074 67.9779 22.3662 68.1059 22.5569C68.234 22.7475 68.298 22.9699 68.298 23.2559V24.2726C68.298 24.7174 68.1379 24.9398 67.8179 24.9398C67.6579 24.9398 67.3698 24.8445 66.9858 24.6856C65.8016 24.1455 64.4254 23.8595 62.9211 23.8595C61.7049 23.8595 60.8088 24.0502 60.0727 24.4632C59.4326 24.8445 59.0805 25.4799 59.0805 26.3378C59.0805 26.9415 59.3046 27.4498 59.7206 27.8311C60.1367 28.2441 60.9368 28.6254 62.057 29.0067L65.0975 29.9599C66.6337 30.4047 67.7219 31.1037 68.394 31.9933C69.0341 32.8512 69.3541 33.8361 69.3541 34.9482C69.3541 35.8378 69.1621 36.6639 68.8101 37.3946C68.426 38.0936 67.9139 38.7291 67.2098 39.2375C66.6017 39.7776 65.8016 40.1589 64.9054 40.4448C64.0093 40.7308 62.9211 40.8579 61.865 40.8579Z" fill="white"/>
    <path d="M60.5848 47.5619C59.9127 47.6572 59.8166 47.0535 60.4247 46.6087C64.4254 43.8445 71.0184 44.7023 71.7545 45.5602C72.5226 46.5134 71.5625 53.0585 67.8179 56.1722C67.2098 56.6488 66.6657 56.3946 66.9218 55.8227L66.9366 55.7855C67.8073 53.6087 69.6693 48.9537 68.8101 47.8796C67.9094 46.7388 63.1506 47.2736 60.7933 47.5385L60.5848 47.5619Z" fill="#1F6AFF"/>
    <path d="M65.8656 51.1522C58.8565 56.2676 48.6789 59 40.0056 59C27.6836 59 16.6419 54.4883 8.28862 47.0217C7.61652 46.4181 8.22461 45.6237 9.02474 46.1003C18.0501 51.2793 29.1559 54.4247 40.6777 54.4247C48.4549 54.4247 57.0002 52.8361 64.8414 49.4682C66.0256 48.9916 67.0178 50.2943 65.8656 51.1522Z" fill="#1F6AFF"/>
</svg>
