<svg width="37" height="48" viewBox="0 0 37 48" fill="none" xmlns="http://www.w3.org/2000/svg">
    <path d="M16.8048 0H24.6V36.33C20.6011 37.095 17.6652 37.4006 14.4767 37.4006C4.96052 37.4003 0 33.069 0 24.7612C0 16.7595 5.26443 11.5612 13.4134 11.5612C14.679 11.5612 15.6406 11.6632 16.8048 11.9689V0ZM16.8048 18.2869C15.8939 17.9813 15.1345 17.8796 14.1728 17.8796C10.225 17.8796 7.94674 20.3258 7.94674 24.6068C7.94674 28.7861 10.1236 31.0793 14.1225 31.0793C14.9825 31.0793 15.6912 31.0282 16.8048 30.876V18.2869Z" fill="white"/>
    <path fill-rule="evenodd" clip-rule="evenodd" d="M37 30.315V12.1204H29.2052V27.6139C29.2052 34.4434 28.8503 37.0425 27.7367 39.2846C26.6737 41.4773 25.0037 42.9034 21.5616 44.5346L28.8 48C32.2417 46.2671 33.9121 44.6876 35.1777 42.1898C36.5441 39.5906 37 36.5839 37 30.315Z" fill="white"/>
    <path d="M29.2048 0.041625H37V8.09438H29.2048V0.041625Z" fill="#1F6AFF"/>
</svg>
