<svg width="56" height="56" viewBox="0 0 56 56" fill="none" xmlns="http://www.w3.org/2000/svg">
    <path d="M28 52.2667C21.5641 52.2667 15.3918 49.71 10.8409 45.1591C6.28999 40.6082 3.73333 34.4359 3.73333 28C3.73333 21.5641 6.28999 15.3918 10.8409 10.8409C15.3918 6.28999 21.5641 3.73333 28 3.73333C31.1867 3.73333 34.3423 4.36101 37.2864 5.58052C40.2306 6.80004 42.9058 8.58751 45.1591 10.8409C47.4125 13.0942 49.2 15.7694 50.4195 18.7135C51.639 21.6577 52.2667 24.8133 52.2667 28C52.2667 31.1867 51.639 34.3423 50.4195 37.2864C49.2 40.2306 47.4125 42.9058 45.1591 45.1591C44.0865 46.2318 42.9183 47.1988 41.671 48.0493L42.5787 49.3061L43.8576 51.0769C45.2592 50.1138 46.5795 49.0184 47.799 47.799C53.05 42.548 56 35.4261 56 28C56 20.5739 53.05 13.452 47.799 8.20101C42.548 2.94999 35.4261 0 28 0C20.5739 0 13.452 2.94999 8.20101 8.20101C2.94999 13.452 0 20.5739 0 28C0 35.4261 2.94999 42.548 8.20101 47.799C13.452 53.05 20.5739 56 28 56C32.4304 56 36.7525 54.95 40.6337 52.9878L39.5547 51.4939L38.4161 49.9175C38.0443 50.0942 37.6676 50.2616 37.2864 50.4195C34.3423 51.639 31.1867 52.2667 28 52.2667Z" fill="#1F6AFF"/>
    <path d="M18.312 15.7061C18.0807 15.3867 17.7542 15.1487 17.3793 15.0263C17.0043 14.9039 16.6003 14.9034 16.225 15.0249C15.8498 15.1464 15.5227 15.3836 15.2906 15.7025C15.0586 16.0214 14.9335 16.4056 14.9333 16.8V44.8H18.6667V22.572L38.4161 49.9175L39.5547 51.4939L40.6337 52.9878C41.7472 52.4249 42.8245 51.7868 43.8576 51.0769L42.5787 49.3061L41.671 48.0493L18.312 15.7061Z" fill="white"/>
    <path d="M37.3333 14.9333V37.3333H41.0667V14.9333H37.3333Z" fill="white"/>
</svg>
