<svg width="56" height="56" viewBox="0 0 56 56" fill="none" xmlns="http://www.w3.org/2000/svg">
    <path d="M20.4925 27.164H33.9469C33.9469 27.164 41.5073 27.2859 41.5073 19.8199V7.47229C41.5073 7.47229 42.6544 0 27.8011 0C13.5819 0 14.4679 6.19722 14.4679 6.19722L14.4865 12.6195H28.0497V14.5477H9.09915C9.09915 14.5477 0 13.5101 0 27.9297C0 42.3492 7.94271 41.8367 7.94271 41.8367H12.6804V35.1457C12.6804 35.1457 12.4223 27.164 20.4925 27.164ZM20.3184 9.22552C19.6712 9.22552 19.0505 8.96705 18.5929 8.50697C18.1352 8.04689 17.8781 7.4229 17.8781 6.77225C17.8781 6.12161 18.1352 5.49761 18.5929 5.03754C19.0505 4.57746 19.6712 4.31899 20.3184 4.31899C20.9656 4.31899 21.5863 4.57746 22.044 5.03754C22.5016 5.49761 22.7587 6.12161 22.7587 6.77225C22.7587 7.4229 22.5016 8.04689 22.044 8.50697C21.5863 8.96705 20.9656 9.22552 20.3184 9.22552Z" fill="#1F6AFF"/>
    <path d="M48.0573 14.1633H43.3196V20.8543C43.3196 20.8543 43.5777 28.836 35.5075 28.836H22.0531C22.0531 28.836 14.4927 28.711 14.4927 36.1801V48.5277C14.4927 48.5277 13.3456 56 28.1989 56C42.415 56 41.529 49.8028 41.529 49.8028L41.5104 43.3837H27.9471V41.4554H46.9009C46.9009 41.4554 56 42.493 56 28.0734C56 13.6539 48.0573 14.1633 48.0573 14.1633ZM35.6816 46.7776C36.3288 46.7776 36.9495 47.0361 37.4071 47.4962C37.8648 47.9562 38.1219 48.5802 38.1219 49.2309C38.1219 49.8815 37.8648 50.5055 37.4071 50.9656C36.9495 51.4257 36.3288 51.6841 35.6816 51.6841C35.0344 51.6841 34.4137 51.4257 33.956 50.9656C33.4984 50.5055 33.2413 49.8815 33.2413 49.2309C33.2413 48.5802 33.4984 47.9562 33.956 47.4962C34.4137 47.0361 35.0344 46.7776 35.6816 46.7776Z" fill="white"/>
</svg>
