<svg width="80" height="80" viewBox="0 0 80 80" fill="none" xmlns="http://www.w3.org/2000/svg">
    <path d="M39.9877 45.2238C42.8687 45.2238 45.2042 42.8823 45.2042 39.9938C45.2042 37.1054 42.8687 34.7638 39.9877 34.7638C37.1068 34.7638 34.7713 37.1054 34.7713 39.9938C34.7713 42.8823 37.1068 45.2238 39.9877 45.2238Z" fill="#1F6AFF"/>
    <path fill-rule="evenodd" clip-rule="evenodd" d="M68 39.9943C68 36.2749 63.3543 32.7501 56.2316 30.5642C57.8753 23.2856 57.1447 17.4948 53.9258 15.6409C53.1839 15.206 52.3163 15 51.3689 15C48.2299 15 44.1321 17.2316 39.9772 21.1227C35.8223 17.2545 31.713 15.0343 28.574 15.0343C27.6152 15.0343 26.7477 15.2518 25.9943 15.6867C22.7868 17.5406 22.0677 23.32 23.7228 30.5756C16.6229 32.7729 12 36.2863 12 39.9943C12 43.7137 16.6457 47.2385 23.7684 49.4243C22.1247 56.7029 22.8553 62.4937 26.0742 64.3477C26.8161 64.7826 27.6837 64.9886 28.6425 64.9886C31.7815 64.9886 35.8907 62.7455 40.0457 58.8544C44.2006 62.7226 48.3098 64.9428 51.4488 64.9428C52.4077 64.9428 53.2752 64.7368 54.0285 64.3019C57.236 62.4479 57.9552 56.6686 56.3 49.4129C63.3771 47.227 68 43.7022 68 39.9943ZM52.6702 17.8496C52.3163 17.6551 51.9054 17.5406 51.3804 17.5406C49.0061 17.5406 45.5133 19.4404 41.7921 22.908C43.4016 24.5903 44.9996 26.5129 46.5406 28.6301C49.1088 28.9048 51.5516 29.3282 53.7888 29.8775C54.04 28.7217 54.2454 27.5887 54.371 26.5129C54.896 22.1412 54.2226 18.7423 52.6702 17.8496ZM38.1623 22.9194C34.4411 19.4747 30.9368 17.5864 28.574 17.5864C28.0489 17.5864 27.6038 17.6894 27.2613 17.8954C25.7203 18.7995 25.0583 22.1984 25.5948 26.5702C25.7318 27.6345 25.9258 28.7446 26.1883 29.889C28.4256 29.3282 30.8683 28.9048 33.448 28.6301C34.9662 26.5129 36.5642 24.6017 38.1623 22.9194ZM51.5972 36.8814C52.1908 35.3593 52.7159 33.8373 53.1382 32.361C51.6429 31.9947 50.0791 31.6972 48.4582 31.4569C49.0175 32.3266 49.5768 33.2193 50.1019 34.1348C50.6384 35.0504 51.1292 35.9659 51.5972 36.8814ZM45.1594 48.9208C46.1068 47.5589 47.02 46.0941 47.9103 44.5491C48.7664 43.0499 49.554 41.5164 50.2731 39.9828C49.554 38.4493 48.7664 36.9272 47.8989 35.428C47.0086 33.8945 46.084 32.4411 45.1366 31.0792C43.4472 30.9419 41.7236 30.8618 40 30.8618C38.265 30.8618 36.5414 30.9419 34.8406 31.0906C33.8932 32.4525 32.98 33.9174 32.0897 35.4623C31.2336 36.9615 30.4346 38.4951 29.7269 40.0286C30.446 41.5621 31.2336 43.0842 32.1011 44.5834C32.9914 46.117 33.916 47.5704 34.8634 48.9322C36.5528 49.0696 38.2764 49.1497 40 49.1497C41.735 49.1497 43.4586 49.0696 45.1594 48.9208ZM53.1724 47.6162C52.7387 46.1284 52.2136 44.5949 51.5972 43.0613C51.1292 43.9769 50.6384 44.9039 50.1133 45.8194C49.5883 46.7464 49.0289 47.6505 48.4696 48.5317C50.1019 48.2914 51.6771 47.9824 53.1724 47.6162ZM36.8496 51.6102C37.8997 52.9492 38.9613 54.1737 40.0228 55.2724C41.073 54.1737 42.1345 52.9492 43.1618 51.6102C42.1231 51.6674 41.0616 51.6903 39.9886 51.6903C38.927 51.6903 37.8769 51.656 36.8496 51.6102ZM26.8504 47.6276C28.3457 47.9938 29.9095 48.2914 31.5304 48.5317C30.9711 47.6619 30.4232 46.7693 29.8867 45.8537C29.3502 44.9382 28.8594 44.0227 28.3914 43.1071C27.7978 44.6292 27.2727 46.1513 26.8504 47.6276ZM43.139 28.3783C42.0889 27.0394 41.0273 25.8148 39.9658 24.7162C38.9156 25.8148 37.8541 27.0394 36.8267 28.3783C37.8655 28.3211 38.927 28.2982 40 28.2982C41.0616 28.2982 42.1117 28.3326 43.139 28.3783ZM29.8753 34.1691C30.4003 33.2422 30.9596 32.3381 31.519 31.4569C29.8867 31.6972 28.3115 32.0062 26.8161 32.361C27.2499 33.8487 27.775 35.3822 28.3914 36.9158C28.8594 36.0002 29.3502 35.0847 29.8753 34.1691ZM14.534 39.9943C14.534 41.791 17.148 44.057 21.1888 45.7851C22.1818 46.2085 23.2548 46.5976 24.3848 46.9524C25.0241 44.7208 25.8687 42.3976 26.9189 40.0172C25.8573 37.6253 25.0012 35.2907 24.3506 33.0476C23.2434 33.4024 22.1704 33.78 21.1888 34.2035C17.148 35.9201 14.534 38.1975 14.534 39.9943ZM25.629 53.4756C25.104 57.8473 25.7774 61.2463 27.3298 62.1389C27.6722 62.3335 28.106 62.4365 28.6196 62.4479C30.9939 62.4479 34.4868 60.5482 38.2079 57.0806C36.5985 55.3983 35.0004 53.4756 33.4594 51.3584C30.8912 51.0838 28.4484 50.6603 26.2112 50.111C25.9601 51.2669 25.7546 52.3999 25.629 53.4756ZM52.7387 62.0932C54.2797 61.1891 54.9417 57.7901 54.4052 53.4184C54.2797 52.3541 54.0742 51.244 53.8117 50.0881C51.5744 50.6489 49.1317 51.0723 46.552 51.347C45.0338 53.4642 43.4358 55.3754 41.8378 57.0577C45.5589 60.5024 49.0632 62.3907 51.426 62.3907C51.9511 62.3907 52.3962 62.2991 52.7387 62.0932ZM55.638 46.9409C56.7452 46.5862 57.8182 46.2085 58.7998 45.7851C62.8406 44.0684 65.4545 41.791 65.466 39.9943C65.466 38.1975 62.852 35.9316 58.8113 34.2035C57.8068 33.78 56.7338 33.3909 55.6038 33.0362C54.9645 35.2678 54.1199 37.591 53.0697 39.9714C54.1313 42.3632 54.9874 44.6979 55.638 46.9409Z" fill="white"/>
</svg>
