<svg width="80" height="80" viewBox="0 0 80 80" fill="none" xmlns="http://www.w3.org/2000/svg">
    <path fill-rule="evenodd" clip-rule="evenodd" d="M40 12C24.537 12 12 24.537 12 40C12 55.4653 24.537 68 40 68C55.4653 68 68 55.4653 68 40C68 24.537 55.4653 12 40 12ZM40 14.597C54.007 14.597 65.403 25.993 65.403 40C65.403 54.007 54.007 65.403 40 65.403C25.993 65.403 14.597 54.007 14.597 40C14.597 25.993 25.993 14.597 40 14.597Z" fill="#1F6AFF"/>
    <path d="M40.9077 36.5863C37.403 37.1113 27.358 38.901 22.2177 42.821L30.557 55.3907C30.557 55.3907 41.5377 48.5493 44.2373 40.8213L40.9077 36.5863Z" fill="white"/>
    <path fill-rule="evenodd" clip-rule="evenodd" d="M56.4033 26.7327C55.1527 26.728 53.4167 27.442 51.1417 29.2947C48.186 31.6765 45.2195 34.0448 42.2423 36.3997L44.634 39.433C46.2077 38.5754 47.6273 37.8117 48.9042 37.1248C56.5141 33.031 59.0525 31.6655 58.9047 29.4137C58.8067 27.9343 58.0087 26.7397 56.401 26.7327H56.4033ZM55.841 29.045C55.841 28.7347 55.5633 28.4873 55.2203 28.4873C54.98 28.4873 54.602 28.646 54.602 29.045C54.602 29.353 54.8797 29.6003 55.2203 29.6003C55.5633 29.6003 55.841 29.353 55.841 29.045ZM50.9153 32.517C51.2583 32.517 51.5337 32.2673 51.5337 31.9617C51.5337 31.5813 51.1627 31.3877 50.8593 31.4017C50.556 31.4157 50.2993 31.663 50.2993 31.9617C50.2993 32.2673 50.5723 32.517 50.9153 32.517ZM47.2333 34.8737C47.2333 34.5657 46.9557 34.3183 46.6127 34.3183C46.3163 34.3183 45.992 34.5283 45.992 34.8737C45.992 35.1817 46.272 35.429 46.6127 35.429C46.9533 35.429 47.2333 35.1817 47.2333 34.8737Z" fill="white"/>
</svg>
