<svg width="80" height="80" viewBox="0 0 80 80" fill="none" xmlns="http://www.w3.org/2000/svg">
    <path fill-rule="evenodd" clip-rule="evenodd" d="M55.9913 56.6002C56.0151 56.5393 56.026 56.4742 56.0235 56.4091L56.006 55.8466C56.006 49.8535 52.3128 45.7586 46.8692 45.7586C45.6132 45.7367 44.3658 45.9707 43.2019 46.4466C42.039 46.9221 40.9837 47.6298 40.0998 48.527C39.2166 49.4234 38.5234 50.4909 38.062 51.6649C37.6011 52.8381 37.3818 54.0934 37.4174 55.3545C37.3667 56.6466 37.5854 57.9351 38.0593 59.137C38.5339 60.3396 39.253 61.429 40.1705 62.3353C41.089 63.2425 42.1855 63.9466 43.3898 64.4026C44.5949 64.8591 45.8812 65.0577 47.1668 64.9856C49.7396 65.051 52.2621 64.2603 54.3432 62.7359C54.4377 62.66 54.5008 62.5514 54.5202 62.4312C54.5396 62.311 54.5139 62.1879 54.4481 62.0858L52.8729 59.7833C52.8178 59.6984 52.7372 59.6334 52.6429 59.5977C52.5485 59.562 52.4454 59.5575 52.3483 59.5848C52.2839 59.6029 52.2241 59.6347 52.1727 59.6779C50.8575 60.6064 49.2979 61.1203 47.6919 61.1543C46.4681 61.2558 45.2507 60.8938 44.2781 60.1391C43.3069 59.3856 42.6514 58.293 42.4408 57.0769C42.4383 57.0561 42.44 57.035 42.4458 57.0148C42.4515 56.9947 42.4613 56.9759 42.4744 56.9596C42.4874 56.9433 42.5035 56.9297 42.5218 56.9196C42.5401 56.9096 42.5601 56.9034 42.5809 56.9012H55.5334C55.5985 56.9037 55.6632 56.8925 55.7239 56.8687C55.7845 56.845 55.8395 56.8089 55.8856 56.7627C55.9316 56.7165 55.9676 56.6611 55.9913 56.6002ZM43.918 50.6565C44.7412 49.9433 45.7999 49.5664 46.8854 49.5999C47.9851 49.5275 49.0691 49.8924 49.9044 50.6162C50.7367 51.3373 51.2518 52.3606 51.3373 53.4627C51.3399 53.4824 51.3382 53.5024 51.3323 53.5214C51.3264 53.5404 51.3165 53.5579 51.3033 53.5726C51.29 53.5873 51.2737 53.5991 51.2556 53.6072C51.2375 53.6152 51.218 53.6194 51.1982 53.6194H42.5902C42.5686 53.62 42.5472 53.6156 42.5276 53.6066C42.508 53.5975 42.4907 53.5841 42.477 53.5672C42.4637 53.5503 42.4544 53.5305 42.4499 53.5093C42.4453 53.4882 42.4457 53.4662 42.451 53.4453C42.5736 52.3628 43.0975 51.3668 43.918 50.6565Z" fill="white"/>
    <path d="M15.1355 61.4531C17.904 63.894 21.5072 65.1547 25.1826 64.9681H25.1648C31.7988 64.9681 35.0019 61.5585 35.0019 57.0943C35.0019 51.4955 29.8271 50.2483 25.7455 49.2644L25.7436 49.264C23.0871 48.6235 20.8943 48.0947 20.8943 46.5495C20.8943 45.0731 22.1545 44.0714 24.3948 44.0714C26.8328 44.0481 29.2051 44.8669 31.1161 46.3913C31.1726 46.4399 31.2384 46.4763 31.3094 46.4983C31.3804 46.5202 31.4551 46.5272 31.529 46.5188C31.6027 46.5105 31.674 46.4871 31.7384 46.45C31.8029 46.413 31.8591 46.3631 31.9037 46.3033L34.0567 43.2981C34.1539 43.1967 34.2082 43.0612 34.2082 42.9202C34.2082 42.7793 34.1539 42.6438 34.0567 42.5424C31.4649 40.4283 28.201 39.3296 24.8674 39.4492C19.0564 39.4492 15.5556 42.8588 15.5556 46.9537C15.5556 52.4596 20.5349 53.6469 24.5844 54.6124C27.3598 55.2742 29.6983 55.8316 29.6983 57.6041C29.6983 59.0101 28.2981 60.3457 25.4276 60.3457C22.7034 60.3547 20.0769 59.3249 18.0763 57.4634C17.9831 57.4062 17.8751 57.3786 17.7661 57.3842C17.6572 57.3898 17.5525 57.4283 17.4656 57.4947C17.408 57.5387 17.3596 57.5938 17.3233 57.6567L15.1355 60.7324C15.0482 60.8319 15 60.96 15 61.0928C15 61.2255 15.0482 61.3536 15.1355 61.4531Z" fill="white"/>
    <path d="M46.875 41.2524C46.9458 41.2213 47.0094 41.1758 47.0619 41.1188L65 20.8945C63.8669 18.4357 62.0164 16.3801 59.7192 15L46.9743 32.5423C46.9216 32.6051 46.856 32.6556 46.7819 32.6902C46.7079 32.7249 46.6272 32.7428 46.5455 32.7428C46.4638 32.7428 46.3831 32.7249 46.3091 32.6902C46.235 32.6556 46.1694 32.6051 46.1167 32.5423L40.8656 26.7073C40.8136 26.6347 40.7453 26.5756 40.6661 26.5348C40.587 26.494 40.4994 26.4728 40.4105 26.4728C40.3216 26.4728 40.2339 26.494 40.1548 26.5348C40.0757 26.5756 40.0073 26.6347 39.9553 26.7073L36.8574 30.697C36.7779 30.7967 36.7346 30.9206 36.7346 31.0484C36.7346 31.1762 36.7779 31.3001 36.8574 31.3998L46.2392 41.1188C46.2917 41.1758 46.3553 41.2213 46.4261 41.2524C46.4969 41.2835 46.5733 41.2996 46.6505 41.2996C46.7278 41.2996 46.8042 41.2835 46.875 41.2524Z" fill="#1F6AFF"/>
</svg>
