<svg width="56" height="56" viewBox="0 0 56 56" fill="none" xmlns="http://www.w3.org/2000/svg">
    <path d="M14.25 36.9375H16.869M19.4881 36.9375H33.2381M35.2024 36.9375H41.75M41.75 41.0625H29.9643M28 41.0625H19.4881M14.25 41.0625H16.869M6 12.1875V8.0625C6 6.92341 6.92341 6 8.0625 6H47.9375C49.0766 6 50 6.92341 50 8.0625V12.1875M6 12.1875H50M6 12.1875V37.625M50 12.1875V14.25M50 18.375V47.9375C50 49.0766 49.0766 50 47.9375 50H8.0625C6.92341 50 6 49.0766 6 47.9375V41.75M13.5625 33.5H42.4375C43.5766 33.5 44.5 34.4234 44.5 35.5625V42.4375C44.5 43.5766 43.5766 44.5 42.4375 44.5H13.5625C12.4234 44.5 11.5 43.5766 11.5 42.4375V35.5625C11.5 34.4234 12.4234 33.5 13.5625 33.5ZM34.4723 20.0509L36.6527 22.2313C37.1897 22.7683 37.1897 23.6389 36.6527 24.1759L34.4723 26.3563C33.9353 26.8933 33.9353 27.7639 34.4723 28.3009L34.5902 28.4188C35.1272 28.9558 35.9978 28.9558 36.5348 28.4188L40.7777 24.1759C41.3147 23.6389 41.3147 22.7683 40.7777 22.2313L36.5348 17.9884C35.9978 17.4514 35.1272 17.4514 34.5902 17.9884L34.4723 18.1063C33.9353 18.6433 33.9353 19.5139 34.4723 20.0509ZM21.5277 20.0509L19.3473 22.2313C18.8103 22.7683 18.8103 23.6389 19.3473 24.1759L21.5277 26.3563C22.0647 26.8933 22.0647 27.7639 21.5277 28.3009L21.4098 28.4188C20.8728 28.9558 20.0022 28.9558 19.4652 28.4188L15.2223 24.1759C14.6853 23.6389 14.6853 22.7683 15.2223 22.2313L19.4652 17.9884C20.0022 17.4514 20.8728 17.4514 21.4098 17.9884L21.5277 18.1063C22.0647 18.6433 22.0647 19.5139 21.5277 20.0509ZM25.3001 27.976L28.3198 16.7063C28.5282 15.9283 29.3279 15.4666 30.1059 15.6751C30.884 15.8835 31.3457 16.6832 31.1372 17.4612L28.1175 28.7309C27.909 29.509 27.1093 29.9707 26.3313 29.7622C25.5533 29.5537 25.0916 28.754 25.3001 27.976Z" stroke="white" stroke-linecap="round"/>
</svg>
