<svg width="56" height="56" viewBox="0 0 56 56" fill="none" xmlns="http://www.w3.org/2000/svg">
    <path d="M6 12.1875V8.0625C6 6.92341 6.92341 6 8.0625 6H11.5M6 12.1875H50M6 12.1875V39.1375C6 40.2766 6.92341 41.2 8.0625 41.2H9.3M50 12.1875V8.0625C50 6.92341 49.0766 6 47.9375 6H14.8M50 12.1875V39.1375C50 40.2766 49.0766 41.2 47.9375 41.2H46.7M12.05 18.65H18.65M12.05 21.4H20.85M12.05 24.7H20.85M20.85 28H17M29.1 20.3H34.05M29.1 23.6H36.8M29.1 26.9H36.8M44.5 39H39.55M44.5 42.3H36.8M44.5 45.6H36.8M9.3 41.2V48.9C9.3 49.5075 9.79249 50 10.4 50H22.5C23.1075 50 23.6 49.5075 23.6 48.9V41.2M9.3 41.2V17C9.3 16.3925 9.79249 15.9 10.4 15.9H22.5C23.1075 15.9 23.6 16.3925 23.6 17V41.2M23.6 41.2H26.9M26.9 41.2V35.7C26.9 35.0925 27.3925 34.6 28 34.6H45.6C46.2075 34.6 46.7 35.0925 46.7 35.7V41.2M26.9 41.2V48.9C26.9 49.5075 27.3925 50 28 50H39M46.7 41.2V48.9C46.7 49.5075 46.2075 50 45.6 50H42.3M12.6 32.4H20.3C20.9075 32.4 21.4 32.8925 21.4 33.5V45.6C21.4 46.2075 20.9075 46.7 20.3 46.7H12.6C11.9925 46.7 11.5 46.2075 11.5 45.6V33.5C11.5 32.8925 11.9925 32.4 12.6 32.4ZM28 31.3H45.6C46.2075 31.3 46.7 30.8075 46.7 30.2V17C46.7 16.3925 46.2075 15.9 45.6 15.9H28C27.3925 15.9 26.9 16.3925 26.9 17V30.2C26.9 30.8075 27.3925 31.3 28 31.3ZM40.1 18.1H43.4C44.0075 18.1 44.5 18.5925 44.5 19.2V28C44.5 28.6075 44.0075 29.1 43.4 29.1H40.1C39.4925 29.1 39 28.6075 39 28V19.2C39 18.5925 39.4925 18.1 40.1 18.1ZM33.5 36.8H30.2C29.5925 36.8 29.1 37.2925 29.1 37.9V46.7C29.1 47.3075 29.5925 47.8 30.2 47.8H33.5C34.1075 47.8 34.6 47.3075 34.6 46.7V37.9C34.6 37.2925 34.1075 36.8 33.5 36.8Z" stroke="white" stroke-linecap="round"/>
</svg>
