<svg width="56" height="56" viewBox="0 0 56 56" fill="none" xmlns="http://www.w3.org/2000/svg">
<path d="M16.0308 14.8L16.5019 14.9673L16.0308 14.8ZM16.0308 22.5L16.5019 22.3327L16.0308 22.5ZM33.3376 22.5L32.8665 22.3327L33.3376 22.5ZM33.3376 14.8L32.8665 14.9673L33.3376 14.8ZM20.7632 9.3C20.7632 9.02385 20.5393 8.8 20.2632 8.8C19.987 8.8 19.7632 9.02385 19.7632 9.3H20.7632ZM29.6053 9.3C29.6053 9.02385 29.3814 8.8 29.1053 8.8C28.8291 8.8 28.6053 9.02385 28.6053 9.3H29.6053ZM39.8256 15.0903L39.4729 15.4446L39.8256 15.0903ZM42.1702 15.0903L42.5229 15.4446L42.1702 15.0903ZM31.4325 49.9102L31.2097 49.4626H31.2097L31.4325 49.9102ZM34.3982 48.4344L34.1755 47.9868L34.3982 48.4344ZM12.5263 42.3183C12.2502 42.3183 12.0263 42.5421 12.0263 42.8183C12.0263 43.0944 12.2502 43.3183 12.5263 43.3183V42.3183ZM28 43.3183C28.2761 43.3183 28.5 43.0944 28.5 42.8183C28.5 42.5421 28.2761 42.3183 28 42.3183V43.3183ZM18.0526 44.5183C17.7765 44.5183 17.5526 44.7421 17.5526 45.0183C17.5526 45.2944 17.7765 45.5183 18.0526 45.5183V44.5183ZM36.8421 45.5183C37.1182 45.5183 37.3421 45.2944 37.3421 45.0183C37.3421 44.7421 37.1182 44.5183 36.8421 44.5183V45.5183ZM12.5263 44.5183C12.2502 44.5183 12.0263 44.7421 12.0263 45.0183C12.0263 45.2944 12.2502 45.5183 12.5263 45.5183V44.5183ZM14.7368 45.5183C15.013 45.5183 15.2368 45.2944 15.2368 45.0183C15.2368 44.7421 15.013 44.5183 14.7368 44.5183V45.5183ZM31.3158 42.3183C31.0396 42.3183 30.8158 42.5421 30.8158 42.8183C30.8158 43.0944 31.0396 43.3183 31.3158 43.3183V42.3183ZM36.8421 43.3183C37.1182 43.3183 37.3421 43.0944 37.3421 42.8183C37.3421 42.5421 37.1182 42.3183 36.8421 42.3183V43.3183ZM17.9359 37.3547L18.1587 36.9071H18.1587L17.9359 37.3547ZM36.8421 30.7628C37.1182 30.7628 37.3421 30.539 37.3421 30.2628C37.3421 29.9867 37.1182 29.7628 36.8421 29.7628V30.7628ZM21.3684 29.7628C21.0923 29.7628 20.8684 29.9867 20.8684 30.2628C20.8684 30.539 21.0923 30.7628 21.3684 30.7628V29.7628ZM31.3158 32.9628C31.5919 32.9628 31.8158 32.739 31.8158 32.4628C31.8158 32.1867 31.5919 31.9628 31.3158 31.9628V32.9628ZM12.5263 31.9628C12.2502 31.9628 12.0263 32.1867 12.0263 32.4628C12.0263 32.739 12.2502 32.9628 12.5263 32.9628V31.9628ZM36.8421 32.9628C37.1182 32.9628 37.3421 32.739 37.3421 32.4628C37.3421 32.1867 37.1182 31.9628 36.8421 31.9628V32.9628ZM34.6316 31.9628C34.3554 31.9628 34.1316 32.1867 34.1316 32.4628C34.1316 32.739 34.3554 32.9628 34.6316 32.9628V31.9628ZM18.0526 30.7628C18.3288 30.7628 18.5526 30.539 18.5526 30.2628C18.5526 29.9867 18.3288 29.7628 18.0526 29.7628V30.7628ZM12.5263 29.7628C12.2502 29.7628 12.0263 29.9867 12.0263 30.2628C12.0263 30.539 12.2502 30.7628 12.5263 30.7628V29.7628ZM6.5 23.6C6.5 23.8761 6.72386 24.1 7 24.1C7.27614 24.1 7.5 23.8761 7.5 23.6H6.5ZM7.5 26.9C7.5 26.6238 7.27614 26.4 7 26.4C6.72386 26.4 6.5 26.6238 6.5 26.9H7.5ZM41.8684 33.5C41.8684 33.7761 42.0923 34 42.3684 34C42.6446 34 42.8684 33.7761 42.8684 33.5H41.8684ZM42.8684 36.8C42.8684 36.5238 42.6446 36.3 42.3684 36.3C42.0923 36.3 41.8684 36.5238 41.8684 36.8H42.8684ZM33.0263 15.9V21.4H34.0263V15.9H33.0263ZM30.2105 24.2H19.1579V25.2H30.2105V24.2ZM16.3421 21.4V15.9H15.3421V21.4H16.3421ZM15.8421 22C14.8952 22 14.1316 21.2366 14.1316 20.3H13.1316C13.1316 21.7934 14.3474 23 15.8421 23V22ZM35.2368 20.3C35.2368 21.2366 34.4733 22 33.5263 22V23C35.021 23 36.2368 21.7934 36.2368 20.3H35.2368ZM33.5263 15.3C34.4733 15.3 35.2368 16.0634 35.2368 17H36.2368C36.2368 15.5066 35.021 14.3 33.5263 14.3V15.3ZM15.8421 14.3C14.3474 14.3 13.1316 15.5066 13.1316 17H14.1316C14.1316 16.0634 14.8952 15.3 15.8421 15.3V14.3ZM15.8421 15.3H16.0308V14.3H15.8421V15.3ZM19.1579 12.1C17.4972 12.1 16.0838 13.1566 15.5596 14.6327L16.5019 14.9673C16.8881 13.8799 17.9312 13.1 19.1579 13.1V12.1ZM15.5596 14.6327C15.4186 15.0297 15.3421 15.4565 15.3421 15.9H16.3421C16.3421 15.5721 16.3986 15.2584 16.5019 14.9673L15.5596 14.6327ZM16.0308 22H15.8421V23H16.0308V22ZM19.1579 24.2C17.9312 24.2 16.8881 23.42 16.5019 22.3327L15.5596 22.6673C16.0838 24.1434 17.4972 25.2 19.1579 25.2V24.2ZM16.5019 22.3327C16.3986 22.0415 16.3421 21.7279 16.3421 21.4H15.3421C15.3421 21.8435 15.4186 22.2703 15.5596 22.6673L16.5019 22.3327ZM33.5263 22H33.3376V23H33.5263V22ZM33.0263 21.4C33.0263 21.7279 32.9699 22.0415 32.8665 22.3327L33.8088 22.6673C33.9498 22.2703 34.0263 21.8435 34.0263 21.4H33.0263ZM32.8665 22.3327C32.4803 23.42 31.4373 24.2 30.2105 24.2V25.2C31.8712 25.2 33.2846 24.1434 33.8088 22.6673L32.8665 22.3327ZM33.3376 15.3H33.5263V14.3H33.3376V15.3ZM30.2105 13.1C31.4373 13.1 32.4803 13.8799 32.8665 14.9673L33.8088 14.6327C33.2846 13.1566 31.8712 12.1 30.2105 12.1V13.1ZM32.8665 14.9673C32.9699 15.2584 33.0263 15.5721 33.0263 15.9H34.0263C34.0263 15.4565 33.9498 15.0297 33.8088 14.6327L32.8665 14.9673ZM20.2632 17.5H23.5789V16.5H20.2632V17.5ZM25.7895 17.5H29.1053V16.5H25.7895V17.5ZM20.2632 15.3H29.1053V14.3H20.2632V15.3ZM30.8158 17V18.1H31.8158V17H30.8158ZM29.1053 19.8H20.2632V20.8H29.1053V19.8ZM18.5526 18.1V17H17.5526V18.1H18.5526ZM20.2632 19.8C19.3162 19.8 18.5526 19.0366 18.5526 18.1H17.5526C17.5526 19.5934 18.7684 20.8 20.2632 20.8V19.8ZM30.8158 18.1C30.8158 19.0366 30.0522 19.8 29.1053 19.8V20.8C30.6 20.8 31.8158 19.5934 31.8158 18.1H30.8158ZM29.1053 15.3C30.0522 15.3 30.8158 16.0634 30.8158 17H31.8158C31.8158 15.5066 30.6 14.3 29.1053 14.3V15.3ZM20.2632 14.3C18.7684 14.3 17.5526 15.5066 17.5526 17H18.5526C18.5526 16.0634 19.3162 15.3 20.2632 15.3V14.3ZM19.1579 13.1H20.2632V12.1H19.1579V13.1ZM20.7632 12.6V9.3H19.7632V12.6H20.7632ZM20.2632 13.1H29.1053V12.1H20.2632V13.1ZM29.1053 13.1H30.2105V12.1H29.1053V13.1ZM29.6053 12.6V9.3H28.6053V12.6H29.6053ZM9.21053 45.1C8.26358 45.1 7.5 44.3366 7.5 43.4H6.5C6.5 44.8934 7.7158 46.1 9.21053 46.1V45.1ZM41.8684 43.4C41.8684 44.3366 41.1048 45.1 40.1579 45.1V46.1C41.6526 46.1 42.8684 44.8934 42.8684 43.4H41.8684ZM40.1579 18.6C41.1048 18.6 41.8684 19.3633 41.8684 20.3H42.8684C42.8684 18.8066 41.6526 17.6 40.1579 17.6V18.6ZM9.21053 17.6C7.7158 17.6 6.5 18.8066 6.5 20.3H7.5C7.5 19.3633 8.26358 18.6 9.21053 18.6V17.6ZM9.21053 18.6H13.6316V17.6H9.21053V18.6ZM14.1316 20.3V18.1H13.1316V20.3H14.1316ZM14.1316 18.1V17H13.1316V18.1H14.1316ZM35.7368 18.6H40.1579V17.6H35.7368V18.6ZM35.2368 17V18.1H36.2368V17H35.2368ZM35.2368 18.1V20.3H36.2368V18.1H35.2368ZM38.5 6.5H45.1316V5.5H38.5V6.5ZM45.1316 13.2H44.1604V14.2H45.1316V13.2ZM39.4712 13.2H38.5V14.2H39.4712V13.2ZM39.4712 14.2C39.4133 14.2 39.3276 14.1777 39.2561 14.1101C39.2261 14.0817 39.2084 14.0542 39.1988 14.0361C39.194 14.0271 39.191 14.0199 39.1892 14.0153C39.1875 14.0107 39.1867 14.008 39.1866 14.0078C39.1866 14.0077 39.1883 14.0139 39.1902 14.0282C39.1922 14.0422 39.194 14.061 39.1953 14.0853C39.198 14.1354 39.198 14.1955 39.1968 14.2706C39.1945 14.4049 39.1863 14.6085 39.203 14.7887C39.2184 14.9539 39.2629 15.2356 39.4729 15.4446L40.1783 14.7359C40.2329 14.7902 40.2103 14.8208 40.1988 14.6962C40.1886 14.5867 40.1937 14.4622 40.1966 14.2875C40.199 14.1467 40.2024 13.9277 40.15 13.7396C40.122 13.6388 40.066 13.4998 39.9436 13.3839C39.8085 13.256 39.6389 13.2 39.4712 13.2V14.2ZM44.1604 13.2C44.0143 13.2 43.8791 13.2421 43.7782 13.2818C43.6703 13.3243 43.561 13.3807 43.4567 13.4413C43.2478 13.5625 43.023 13.7214 42.8132 13.882C42.3939 14.2028 41.9897 14.5645 41.8175 14.7359L42.5229 15.4446C42.6617 15.3066 43.0327 14.9732 43.4209 14.6762C43.6147 14.5279 43.8017 14.3972 43.9587 14.3061C44.0372 14.2605 44.0993 14.2301 44.1446 14.2123C44.1969 14.1917 44.1965 14.2 44.1604 14.2V13.2ZM41.8175 14.7359C41.3652 15.1861 40.6307 15.1861 40.1783 14.7359L39.4729 15.4446C40.3154 16.2832 41.6804 16.2832 42.5229 15.4446L41.8175 14.7359ZM34.1316 9.85C34.1316 12.2547 36.0896 14.2 38.5 14.2V13.2C36.6374 13.2 35.1316 11.6979 35.1316 9.85H34.1316ZM48.5 9.85C48.5 11.6979 46.9942 13.2 45.1316 13.2V14.2C47.5419 14.2 49.5 12.2547 49.5 9.85H48.5ZM45.1316 6.5C46.9942 6.5 48.5 8.00209 48.5 9.85H49.5C49.5 7.44531 47.5419 5.5 45.1316 5.5V6.5ZM38.5 5.5C36.0896 5.5 34.1316 7.44531 34.1316 9.85H35.1316C35.1316 8.00209 36.6374 6.5 38.5 6.5V5.5ZM11.4211 40.0183H37.9474V39.0183H11.4211V40.0183ZM29.3662 47.8183H11.4211V48.8183H29.3662V47.8183ZM37.9474 47.8183H34.8925V48.8183H37.9474V47.8183ZM31.6552 50.3578L34.621 48.882L34.1755 47.9868L31.2097 49.4626L31.6552 50.3578ZM34.8925 47.8183C34.6437 47.8183 34.3982 47.8759 34.1755 47.9868L34.621 48.882C34.7052 48.8401 34.7981 48.8183 34.8925 48.8183V47.8183ZM29.7105 49.1586C29.7105 50.1585 30.7649 50.8009 31.6552 50.3578L31.2097 49.4626C30.9772 49.5783 30.7105 49.4081 30.7105 49.1586H29.7105ZM29.3662 48.8183C29.5586 48.8183 29.7105 48.9729 29.7105 49.1586H30.7105C30.7105 48.4161 30.1064 47.8183 29.3662 47.8183V48.8183ZM9.81579 47.2183C9.81579 48.1042 10.5367 48.8183 11.4211 48.8183V47.8183C11.0845 47.8183 10.8158 47.5474 10.8158 47.2183H9.81579ZM38.5526 47.2183C38.5526 47.5474 38.2839 47.8183 37.9474 47.8183V48.8183C38.8317 48.8183 39.5526 48.1042 39.5526 47.2183H38.5526ZM37.9474 40.0183C38.2839 40.0183 38.5526 40.2892 38.5526 40.6183H39.5526C39.5526 39.7324 38.8317 39.0183 37.9474 39.0183V40.0183ZM11.4211 39.0183C10.5367 39.0183 9.81579 39.7324 9.81579 40.6183H10.8158C10.8158 40.2892 11.0845 40.0183 11.4211 40.0183V39.0183ZM12.5263 43.3183H28V42.3183H12.5263V43.3183ZM18.0526 45.5183H36.8421V44.5183H18.0526V45.5183ZM12.5263 45.5183H14.7368V44.5183H12.5263V45.5183ZM31.3158 43.3183H36.8421V42.3183H31.3158V43.3183ZM37.9474 26.4628H11.4211V27.4628H37.9474V26.4628ZM9.81579 28.0628V34.6628H10.8158V28.0628H9.81579ZM39.5526 34.6628V28.0628H38.5526V34.6628H39.5526ZM20.0022 36.2628H37.9474V35.2628H20.0022V36.2628ZM11.4211 36.2628H14.4759V35.2628H11.4211V36.2628ZM18.1587 36.9071L15.193 35.4313L14.7475 36.3266L17.7132 37.8024L18.1587 36.9071ZM14.4759 36.2628C14.5703 36.2628 14.6633 36.2847 14.7475 36.3266L15.193 35.4313C14.9702 35.3205 14.7247 35.2628 14.4759 35.2628V36.2628ZM18.6579 36.6031C18.6579 36.8526 18.3912 37.0228 18.1587 36.9071L17.7132 37.8024C18.6035 38.2454 19.6579 37.603 19.6579 36.6031H18.6579ZM20.0022 35.2628C19.262 35.2628 18.6579 35.8606 18.6579 36.6031H19.6579C19.6579 36.4174 19.8098 36.2628 20.0022 36.2628V35.2628ZM38.5526 34.6628C38.5526 34.9919 38.2839 35.2628 37.9474 35.2628V36.2628C38.8317 36.2628 39.5526 35.5487 39.5526 34.6628H38.5526ZM9.81579 34.6628C9.81579 35.5487 10.5367 36.2628 11.4211 36.2628V35.2628C11.0845 35.2628 10.8158 34.9919 10.8158 34.6628H9.81579ZM11.4211 26.4628C10.5367 26.4628 9.81579 27.1769 9.81579 28.0628H10.8158C10.8158 27.7337 11.0845 27.4628 11.4211 27.4628V26.4628ZM37.9474 27.4628C38.2839 27.4628 38.5526 27.7337 38.5526 28.0628H39.5526C39.5526 27.1769 38.8317 26.4628 37.9474 26.4628V27.4628ZM36.8421 29.7628H21.3684V30.7628H36.8421V29.7628ZM31.3158 31.9628H12.5263V32.9628H31.3158V31.9628ZM36.8421 31.9628H34.6316V32.9628H36.8421V31.9628ZM18.0526 29.7628H12.5263V30.7628H18.0526V29.7628ZM7.5 23.6V20.3H6.5V23.6H7.5ZM7.5 43.4V26.9H6.5V43.4H7.5ZM38.5526 40.6183V45.6H39.5526V40.6183H38.5526ZM38.5526 45.6V47.2183H39.5526V45.6H38.5526ZM40.1579 45.1H39.0526V46.1H40.1579V45.1ZM10.3158 45.1H9.21053V46.1H10.3158V45.1ZM10.8158 47.2183V45.6H9.81579V47.2183H10.8158ZM10.8158 45.6V40.6183H9.81579V45.6H10.8158ZM41.8684 20.3V33.5H42.8684V20.3H41.8684ZM41.8684 36.8V43.4H42.8684V36.8H41.8684ZM38.5526 9.85C38.5526 9.87536 38.5313 9.9 38.5 9.9V10.9C39.0791 10.9 39.5526 10.4321 39.5526 9.85H38.5526ZM38.5 9.9C38.4687 9.9 38.4474 9.87536 38.4474 9.85H37.4474C37.4474 10.4321 37.9209 10.9 38.5 10.9V9.9ZM38.4474 9.85C38.4474 9.82463 38.4687 9.8 38.5 9.8V8.8C37.9209 8.8 37.4474 9.26785 37.4474 9.85H38.4474ZM38.5 9.8C38.5313 9.8 38.5526 9.82463 38.5526 9.85H39.5526C39.5526 9.26785 39.0791 8.8 38.5 8.8V9.8ZM41.8684 9.85C41.8684 9.87536 41.8471 9.9 41.8158 9.9V10.9C42.3949 10.9 42.8684 10.4321 42.8684 9.85H41.8684ZM41.8158 9.9C41.7845 9.9 41.7632 9.87536 41.7632 9.85H40.7632C40.7632 10.4321 41.2367 10.9 41.8158 10.9V9.9ZM41.7632 9.85C41.7632 9.82463 41.7845 9.8 41.8158 9.8V8.8C41.2367 8.8 40.7632 9.26785 40.7632 9.85H41.7632ZM41.8158 9.8C41.8471 9.8 41.8684 9.82463 41.8684 9.85H42.8684C42.8684 9.26785 42.3949 8.8 41.8158 8.8V9.8ZM45.1842 9.85C45.1842 9.87536 45.1629 9.9 45.1316 9.9V10.9C45.7107 10.9 46.1842 10.4321 46.1842 9.85H45.1842ZM45.1316 9.9C45.1003 9.9 45.0789 9.87536 45.0789 9.85H44.0789C44.0789 10.4321 44.5525 10.9 45.1316 10.9V9.9ZM45.0789 9.85C45.0789 9.82463 45.1003 9.8 45.1316 9.8V8.8C44.5525 8.8 44.0789 9.26785 44.0789 9.85H45.0789ZM45.1316 9.8C45.1629 9.8 45.1842 9.82463 45.1842 9.85H46.1842C46.1842 9.26785 45.7107 8.8 45.1316 8.8V9.8Z" fill="white"/>
</svg>
