<svg width="56" height="56" viewBox="0 0 56 56" fill="none" xmlns="http://www.w3.org/2000/svg">
    <g clip-path="url(#clip0_439_3866)">
        <path d="M6.0108 29.9589L10.4075 26.7987M16.75 24.5064L15.5577 23.9221C15.1386 23.7167 14.6374 23.7583 14.2595 24.0299L12.5469 25.2609M16.75 24.5064L21.75 26.9568M16.75 24.5064V21.7497C16.75 21.073 17.3096 20.5245 18 20.5245H20.5C21.1904 20.5245 21.75 21.073 21.75 21.7497V26.9568M16.75 24.5064V31.3466M21.75 26.9568L22.9693 27.5543C23.3742 27.7528 23.8569 27.7211 24.2312 27.4716L25.5 26.626M21.75 26.9568V33.381M25.5 26.626V33.3186M25.5 26.626V25.4253M30.5 23.2934V19.2993C30.5 18.6227 29.9404 18.0741 29.25 18.0741H26.75C26.0596 18.0741 25.5 18.6227 25.5 19.2993V21.7497M30.5 23.2934V31.0591M30.5 23.2934L34.5249 20.6108M49.7577 22.0389L48 21.2732M48 21.2732L43 19.0951M48 21.2732V10.7229C48 10.0463 47.4404 9.49774 46.75 9.49774H44.25C43.5596 9.49774 43 10.0463 43 10.7229V19.0951M48 21.2732V40.7402M43 19.0951L39.8855 17.7384C39.4903 17.5662 39.0325 17.6065 38.6749 17.8448L36.7563 19.1236M43 19.0951V40.7402M48 40.7402H53M48 40.7402H43M43 40.7402H39.25M39.25 40.7402V27.8757C39.25 27.199 38.6904 26.6505 38 26.6505H36.5135M39.25 40.7402H37.9783M30.5 40.7402H25.5M30.5 40.7402V38.6207M30.5 40.7402H31.9536M25.5 40.7402H21.75M25.5 40.7402V35.8034M21.75 40.7402H16.75M21.75 40.7402V35.8541M16.75 40.7402H13M16.75 40.7402V34.2569M13 40.7402V36.4521C13 35.7754 12.4404 35.2269 11.75 35.2269H9.25C8.55964 35.2269 8 35.7754 8 36.4521V40.7402M13 40.7402H8M3 40.7402H8M32.439 32.6634C31.1794 33.734 29.7191 34.5839 28.1209 35.1516M32.439 32.6634C33.1011 32.1006 33.7078 31.4769 34.25 30.8012M32.439 32.6634L34.25 35.3039M28.1209 35.1516C27.2822 35.4495 26.4056 35.6697 25.5 35.8034M28.1209 35.1516L30.5 38.6207M16.75 34.2569C13.7935 32.6414 11.5082 29.9876 10.4075 26.7987M16.75 34.2569C18.2637 35.0839 19.9533 35.6389 21.75 35.8541M10.4075 26.7987C9.93926 25.4421 9.68539 23.9887 9.68539 22.4772C9.68539 15.0339 15.8415 9 23.4354 9C29.8481 9 35.2355 13.3028 36.7563 19.1236M12.5469 25.2609C12.311 24.3716 12.1854 23.4388 12.1854 22.4772C12.1854 16.3872 17.2222 11.4504 23.4354 11.4504C28.9996 11.4504 33.6203 15.4097 34.5249 20.6108M12.5469 25.2609C13.2032 27.7338 14.7132 29.8692 16.75 31.3466M16.75 31.3466C18.1914 32.3921 19.8967 33.1081 21.75 33.381M21.75 33.381C22.2998 33.462 22.8626 33.5039 23.4354 33.5039C24.1406 33.5039 24.8307 33.4403 25.5 33.3186M21.75 35.8541C22.3023 35.9203 22.8648 35.9543 23.4354 35.9543C24.1371 35.9543 24.8266 35.9028 25.5 35.8034M25.5 33.3186C27.3701 32.9786 29.0779 32.1852 30.5 31.0591M30.5 38.6207L31.9536 40.7402M30.5 31.0591C33.0528 29.0377 34.6854 25.9443 34.6854 22.4772C34.6854 21.841 34.6304 21.2175 34.5249 20.6108M36.5135 26.6505C36.9496 25.3365 37.1854 23.9338 37.1854 22.4772C37.1854 21.3194 37.0364 20.1957 36.7563 19.1236M36.5135 26.6505C36.0089 28.1705 35.2362 29.572 34.25 30.8012M34.25 30.8012V35.3039M37.9783 40.7402L41.6649 45.7241C42.05 46.2857 41.8977 47.047 41.3248 47.4245L39.25 48.7915C38.6771 49.169 37.9004 49.0198 37.5152 48.4582L31.9536 40.7402M37.9783 40.7402L34.25 35.3039" stroke="white" stroke-linecap="round"/>
    </g>
    <defs>
        <clipPath id="clip0_439_3866">
            <rect width="48" height="48" fill="white" transform="translate(4 4)"/>
        </clipPath>
    </defs>
</svg>
